<svg width="179" height="48" viewBox="0 0 179 48" fill="none" xmlns="http://www.w3.org/2000/svg">
<path d="M26.9139 11.5956C31.7522 16.3255 32.2529 21.1396 31.8984 22.9554L33.1612 24.1511L28.9742 29.0006C24.9645 30.0192 17.6362 31.2327 20.4009 27.9377C23.8568 23.819 20.8661 20.431 19.8692 19.6338C19.0717 18.9961 19.0939 18.2609 19.2046 17.973C19.3819 17.5301 20.0021 16.7905 21.0654 17.3751C22.1287 17.9597 23.5466 20.1874 24.1227 21.2281C24.61 21.2281 25.3854 20.8561 24.5879 19.3681C23.591 17.508 21.9958 16.5115 21.3312 15.7144C20.6666 14.9172 20.7331 14.7843 21.0654 13.9207C21.3312 13.2298 22.3724 13.3228 22.8598 13.4557C23.1035 13.6107 24.0561 14.4389 25.917 16.5115C27.7778 18.5842 28.819 22.4682 29.107 24.1511C29.6387 17.6409 25.917 14.4522 25.3189 13.9207C24.7208 13.3893 23.6574 12.5257 24.6543 11.3963C25.4518 10.4929 26.493 11.1528 26.9139 11.5956Z" fill="#FFC300"/>
<path d="M26.9141 39.8289H15.2172C14.9513 30.5284 16.6793 30.9936 19.9358 28.2034C23.1923 25.4133 22.3948 25.7455 23.8569 20.3646C25.0266 16.0598 28.1547 15.9137 29.5725 16.3787C28.5756 17.508 26.9141 21.5603 26.5818 23.7526C26.2495 25.9448 26.6482 28.2034 28.7749 26.8084C30.9017 25.4133 32.0979 22.3575 32.0979 21.2282C32.3106 18.0926 30.9017 15.1829 30.1706 14.12C28.5091 10.7984 32.2309 11.0642 33.1613 13.3228C35.926 17.9464 35.3323 22.8225 34.6899 24.6825C34.136 26.3212 32.3771 30.1299 29.7718 32.2557C27.1666 34.3815 26.7812 38.1902 26.9141 39.8289Z" fill="#5C2EDE"/>
<rect x="14.6191" y="40.5596" width="12.8932" height="2.1258" rx="1.0629" fill="#5C2EDE"/>
<rect x="14.6191" y="43.2168" width="12.8932" height="2.1258" rx="1.0629" fill="#5C2EDE"/>
<rect x="16.4795" y="45.874" width="8.50685" height="2.1258" rx="1.0629" fill="#5C2EDE"/>
<path d="M29.9706 11.1965C29.3857 12.2063 27.8217 11.1744 27.1128 10.5322C24.8532 8.87146 18.7389 7.60917 14.0867 11.1965C9.4345 14.7838 8.43761 19.9654 9.70034 24.2834C10.9631 28.6015 13.7801 29.9116 15.0171 31.6573C16.1469 33.2516 14.0202 33.7831 13.6215 33.3845C13.5463 33.3094 11.8935 31.7459 11.096 30.9266C8.37116 28.535 6.04507 23.4863 7.17489 17.6403C8.3047 11.7943 13.1563 9.00423 13.555 8.73851C13.9538 8.47278 16.2799 6.67918 20.9321 6.54632C24.6538 6.44003 28.1097 8.31782 29.3725 9.27C29.8155 9.49144 30.5554 10.1868 29.9706 11.1965Z" fill="#5C2EDE"/>
<rect width="1.06334" height="4.51739" rx="0.531671" transform="matrix(0.98482 -0.173576 0.17372 0.984795 16.918 0.18457)" fill="#0F0629"/>
<rect width="1.06334" height="4.51739" rx="0.531671" transform="matrix(0.98482 0.173576 -0.17372 0.984795 24.1768 0.0361328)" fill="#0F0629"/>
<rect width="1.06323" height="4.51787" rx="0.531614" transform="matrix(0.84815 0.529756 -0.530083 0.847946 31.1689 2.41504)" fill="#0F0629"/>
<rect width="1.06308" height="4.5185" rx="0.53154" transform="matrix(0.629171 0.777267 -0.777531 0.628845 36.873 6.94531)" fill="#0F0629"/>
<rect width="1.06295" height="4.51905" rx="0.531475" transform="matrix(0.33015 0.943928 -0.944017 0.329898 40.6836 13.1895)" fill="#0F0629"/>
<rect x="42" y="20.2314" width="1.0629" height="4.51927" rx="0.53145" transform="rotate(90 42 20.2314)" fill="#0F0629"/>
<rect width="1.06295" height="4.51904" rx="0.531477" transform="matrix(0.341822 -0.939765 0.939859 0.341563 36.4219 26.875)" fill="#0F0629"/>
<rect width="1.0631" height="4.51842" rx="0.53155" transform="matrix(0.661224 -0.750189 0.75047 0.660905 33.3604 31.791)" fill="#0F0629"/>
<rect width="1.06324" height="4.51784" rx="0.531618" transform="matrix(0.857134 -0.515093 0.515418 0.856939 28.8418 35.3936)" fill="#0F0629"/>
<rect width="1.06324" height="4.51784" rx="0.531618" transform="matrix(0.857265 0.514876 -0.5152 0.85707 12.4561 34.834)" fill="#0F0629"/>
<rect width="1.0631" height="4.51842" rx="0.531549" transform="matrix(0.659254 0.751921 -0.752201 0.658934 8.04883 30.9932)" fill="#0F0629"/>
<rect width="1.06295" height="4.51904" rx="0.531477" transform="matrix(0.344299 0.93886 -0.938956 0.344038 5.43652 25.9453)" fill="#0F0629"/>
<rect x="4.51953" y="20.2432" width="1.0629" height="4.51927" rx="0.53145" transform="rotate(90 4.51953 20.2432)" fill="#0F0629"/>
<rect width="1.06295" height="4.51905" rx="0.531475" transform="matrix(0.332999 -0.942927 0.943017 0.332746 1.06055 14.1924)" fill="#0F0629"/>
<rect width="1.06309" height="4.51844" rx="0.531547" transform="matrix(0.652385 -0.757888 0.758164 0.652064 4.57617 7.66699)" fill="#0F0629"/>
<rect width="1.06324" height="4.51781" rx="0.531622" transform="matrix(0.866809 -0.49864 0.498961 0.866624 10.0996 2.8252)" fill="#0F0629"/>
<path d="M54.468 33L60.942 14.02H66.974L73.63 33H69.834L64.192 16.542L65.518 17.114H62.268L63.62 16.542L58.16 33H54.468ZM58.992 27.956L60.162 24.836H67.858L69.002 27.956H58.992ZM80.4723 38.564C79.7963 38.564 79.1029 38.538 78.3923 38.486C77.6989 38.434 77.0489 38.3647 76.4423 38.278V35.262C77.0663 35.3313 77.7336 35.392 78.4443 35.444C79.1549 35.5133 79.8223 35.548 80.4463 35.548C81.6076 35.548 82.5436 35.4093 83.2543 35.132C83.9823 34.8547 84.5109 34.4127 84.8403 33.806C85.1869 33.2167 85.3603 32.4627 85.3603 31.544V28.762L86.1403 26.994C86.0883 28.294 85.8196 29.4033 85.3343 30.322C84.8489 31.2233 84.1903 31.9167 83.3583 32.402C82.5263 32.87 81.5643 33.104 80.4723 33.104C79.5016 33.104 78.6176 32.922 77.8203 32.558C77.0403 32.194 76.3643 31.6913 75.7923 31.05C75.2376 30.4087 74.8043 29.6547 74.4923 28.788C74.1803 27.9213 74.0243 26.994 74.0243 26.006V25.46C74.0243 24.472 74.1803 23.5533 74.4923 22.704C74.8216 21.8373 75.2809 21.0833 75.8703 20.442C76.4596 19.8007 77.1616 19.3067 77.9763 18.96C78.7909 18.6133 79.6923 18.44 80.6803 18.44C81.8416 18.44 82.8469 18.6913 83.6963 19.194C84.5629 19.6967 85.2389 20.4247 85.7243 21.378C86.2096 22.3313 86.4783 23.5013 86.5303 24.888L85.9062 24.992V18.882H88.7663V31.336C88.7663 33.052 88.4716 34.4387 87.8823 35.496C87.2929 36.5533 86.3829 37.3247 85.1523 37.81C83.9389 38.3127 82.3789 38.564 80.4723 38.564ZM81.5123 30.01C82.2056 30.01 82.8383 29.854 83.4103 29.542C83.9823 29.23 84.4416 28.7793 84.7883 28.19C85.1349 27.6007 85.3083 26.89 85.3083 26.058V25.148C85.3083 24.3507 85.1263 23.6747 84.7623 23.12C84.4156 22.5653 83.9563 22.1493 83.3843 21.872C82.8123 21.5773 82.1883 21.43 81.5123 21.43C80.7496 21.43 80.0736 21.612 79.4843 21.976C78.9123 22.3227 78.4616 22.8167 78.1323 23.458C77.8029 24.0993 77.6383 24.862 77.6383 25.746C77.6383 26.6127 77.8029 27.3667 78.1323 28.008C78.4616 28.6493 78.9123 29.1433 79.4843 29.49C80.0736 29.8367 80.7496 30.01 81.5123 30.01ZM98.0263 33.494C96.813 33.494 95.747 33.286 94.8283 32.87C93.927 32.454 93.173 31.8993 92.5663 31.206C91.977 30.4953 91.5263 29.7067 91.2143 28.84C90.9196 27.9733 90.7723 27.0893 90.7723 26.188V25.694C90.7723 24.758 90.9196 23.8567 91.2143 22.99C91.5263 22.106 91.977 21.326 92.5663 20.65C93.173 19.9567 93.9183 19.4107 94.8023 19.012C95.6863 18.596 96.709 18.388 97.8703 18.388C99.3956 18.388 100.67 18.726 101.692 19.402C102.732 20.0607 103.512 20.936 104.032 22.028C104.552 23.1027 104.812 24.264 104.812 25.512V26.812H92.3063V24.602H102.55L101.432 25.694C101.432 24.7927 101.302 24.0213 101.042 23.38C100.782 22.7387 100.384 22.2447 99.8463 21.898C99.3263 21.5513 98.6676 21.378 97.8703 21.378C97.073 21.378 96.397 21.56 95.8423 21.924C95.2876 22.288 94.863 22.8167 94.5683 23.51C94.291 24.186 94.1523 25.0007 94.1523 25.954C94.1523 26.838 94.291 27.6267 94.5683 28.32C94.8456 28.996 95.2703 29.5333 95.8423 29.932C96.4143 30.3133 97.1423 30.504 98.0263 30.504C98.9103 30.504 99.6296 30.3307 100.184 29.984C100.739 29.62 101.094 29.178 101.25 28.658H104.578C104.37 29.6287 103.972 30.478 103.382 31.206C102.793 31.934 102.039 32.4973 101.12 32.896C100.219 33.2947 99.1876 33.494 98.0263 33.494ZM106.831 33V18.882H109.691V24.94H109.431C109.431 23.5013 109.622 22.3053 110.003 21.352C110.385 20.3813 110.948 19.6533 111.693 19.168C112.456 18.6827 113.401 18.44 114.527 18.44H114.683C116.365 18.44 117.639 18.986 118.505 20.078C119.372 21.1527 119.805 22.7647 119.805 24.914V33H116.191V24.602C116.191 23.7353 115.94 23.0333 115.437 22.496C114.952 21.9587 114.276 21.69 113.409 21.69C112.525 21.69 111.806 21.9673 111.251 22.522C110.714 23.0593 110.445 23.7873 110.445 24.706V33H106.831ZM128.957 33.494C127.726 33.494 126.66 33.286 125.759 32.87C124.875 32.454 124.129 31.8993 123.523 31.206C122.933 30.5127 122.491 29.7327 122.197 28.866C121.902 27.9993 121.755 27.1153 121.755 26.214V25.72C121.755 24.7667 121.902 23.8567 122.197 22.99C122.509 22.106 122.968 21.326 123.575 20.65C124.181 19.9567 124.927 19.4107 125.811 19.012C126.712 18.596 127.752 18.388 128.931 18.388C130.161 18.388 131.262 18.6307 132.233 19.116C133.203 19.584 133.975 20.2427 134.547 21.092C135.136 21.9413 135.465 22.9293 135.535 24.056H132.025C131.938 23.328 131.626 22.7213 131.089 22.236C130.569 21.7507 129.849 21.508 128.931 21.508C128.133 21.508 127.466 21.6987 126.929 22.08C126.409 22.4613 126.019 22.99 125.759 23.666C125.499 24.3247 125.369 25.0873 125.369 25.954C125.369 26.786 125.49 27.54 125.733 28.216C125.993 28.892 126.383 29.4207 126.903 29.802C127.44 30.1833 128.125 30.374 128.957 30.374C129.581 30.374 130.118 30.2613 130.569 30.036C131.019 29.8107 131.375 29.4987 131.635 29.1C131.912 28.7013 132.085 28.2507 132.155 27.748H135.665C135.595 28.892 135.257 29.8973 134.651 30.764C134.061 31.6133 133.273 32.2807 132.285 32.766C131.314 33.2513 130.205 33.494 128.957 33.494ZM137.144 38.564V35.47H139.796C140.299 35.47 140.715 35.4007 141.044 35.262C141.391 35.1407 141.677 34.9327 141.902 34.638C142.127 34.3607 142.301 33.9707 142.422 33.468L146.218 18.882H149.676L145.49 34.248C145.213 35.3053 144.823 36.146 144.32 36.77C143.817 37.4113 143.167 37.8707 142.37 38.148C141.59 38.4253 140.619 38.564 139.458 38.564H137.144ZM141.538 32.688V29.828H144.554V32.688H141.538ZM140.316 32.688L135.74 18.882H139.38L143.722 32.688H140.316ZM150.152 27.28V24.108H160.682V27.28H150.152ZM160.604 33L167.286 22.886L167.312 23.328L161.176 14.02H165.284L169.392 20.39H169.938L174.02 14.02H177.972L171.758 23.406L171.706 22.964L178.544 33H174.462L169.678 25.876H169.132L164.556 33H160.604Z" fill="#0F0629"/>
</svg>
